<?xml version="1.0" encoding="utf-8"?>
<!-- Generator: Adobe Illustrator 26.0.0, SVG Export Plug-In . SVG Version: 6.00 Build 0)  -->
<svg version="1.1" id="Layer_1" xmlns="http://www.w3.org/2000/svg" xmlns:xlink="http://www.w3.org/1999/xlink" x="0px" y="0px"
	 viewBox="0 0 817 789.2" style="enable-background:new 0 0 817 789.2;" xml:space="preserve">
<style type="text/css">
	.st0{fill:#7CC46E;}
	.st1{enable-background:new    ;}
	.st2{fill:#51C5F1;}
</style>
<path class="st0" d="M30.2,213.8c0,0,135.2,143.4,248.3,439.5c0,0-71.1-339.2-156.2-479.1C122.3,174.2,66.4,201,30.2,213.8
	L30.2,213.8z"/>
<path class="st0" d="M127.6,137.1c0,0,109.6,202,151,421.4c0,0-11.1-311.3-61.8-441.5C216.7,117,172.1,134.5,127.6,137.1
	L127.6,137.1z"/>
<path class="st0" d="M222,62.8c0,0,90.9,271,87.4,613.8c0,0,30.6,35.4,114.1,8.7c0,0-88.7,5.2-100.8-53.8c-12-59-9.4-105.4,0-142.7
	c0,0,33.9-436,63-447.7C385.8,41.3,296,63.4,222,62.8L222,62.8z"/>
<path class="st0" d="M322.8,706.9c0,0,8.2,19.2,74.7,8.7c0,0-30.3,22-80.4,3.1C317,718.8,313.9,712.2,322.8,706.9L322.8,706.9z"/>
<path class="st0" d="M316.5,746l6.3,19.2c0,0,47.9,14.6,120.1-38.8C442.9,726.4,343.9,770.4,316.5,746L316.5,746z"/>
<g class="st1">
	<path class="st0" d="M541.1,430.6c-4-1.9-6.3-4.3-7-7.1c-0.7-2.8-0.6-7.2,0.1-13.2l9.8-80.2c0.4-3.4,0.6-6.5,0.6-9.1
		c0-2.6-0.5-4.8-1.5-6.6c-0.9-1.8-2.5-3.2-4.6-4.4c-2.1-1.1-5-1.9-8.5-2.3c-7.6-0.9-13.5,2.1-17.8,9c-4.3,7-7.2,16.9-8.8,29.7
		l-6,49.3c-0.7,6-0.9,11.3-0.5,15.9c0.4,4.6,2.4,8.1,6,10.4l-21,1.1c-1.9-1.1-3.4-2.3-4.5-3.6c-1.1-1.3-1.9-2.9-2.4-4.7
		c-0.5-1.9-0.7-4.2-0.6-6.9c0.1-2.7,0.4-6.1,0.9-10.1l5.8-47.2l-12.5,0.9l-0.1,0.4c-1.1,8.7-3.7,14.6-7.9,17.6
		c-4.2,3-9,4.2-14.5,3.6c-3.6-0.4-6.4-1.7-8.5-3.6c2.1-2.1,3.6-3.6,4.2-4.5c0.7-0.9,1.1-2.3,1.4-4c0.3-2.4,0.1-4.6-0.6-6.5
		c-0.7-1.9-1-3.4-0.9-4.4c0.1-0.9,0.8-1.4,2.2-1.7l38.1-1.9c1.7-8.9,4.2-16.3,7.5-22c3.3-5.8,7.4-10.2,12.3-13.3
		c4.9-3.1,10.4-5.1,16.7-5.9c6.3-0.8,13.2-0.8,20.8,0.2c3.6,0.4,7,1.4,10.3,2.9c3.3,1.5,6.1,3.8,8.5,7c2.4,3.2,4.1,7.5,5.1,13
		c1.1,5.5,1.1,12.4,0.1,20.7l-7,57c-0.6,5-0.7,9.5-0.2,13.5c0.5,4,2.4,7.2,5.9,9.6L541.1,430.6z"/>
	<path class="st0" d="M673.8,443.1c-3.7,0.6-6.8,1-9.3,1.3c-2.5,0.3-5.4,0.4-8.8,0.5l-2.4-0.1c-2.4-0.3-4.8-1.1-7-2.5
		c-2.2-1.4-3.5-3.9-3.8-7.5l-39.2,3.7c-4.6-0.7-8.4-1.7-11.6-2.9c-3.2-1.3-5.7-3.2-7.7-5.8c-1.9-2.6-3.2-6.1-3.7-10.4
		c-0.6-4.3-0.4-9.8,0.4-16.7l0.5-3.9c1.9-14.6,4.2-27,6.8-37.4c2.6-10.3,6.5-18.7,11.8-25c5.3-6.3,12.4-10.6,21.5-12.8
		c9-2.2,21.1-2.4,36.1-0.6l21.2,2.6c1.4,1.3,2.1,2.6,1.9,3.7c-0.1,1.1-0.6,2.5-1.5,4c-0.8,1.5-1.4,3.2-1.6,5.2
		c-0.1,0.9-0.1,1.6,0,2.2c0.1,0.6,0.3,1.2,0.6,1.9c0.4,0.7,0.9,1.5,1.8,2.3c0.8,0.8,2,2,3.6,3.5c-6.7,1.6-12.1,2.2-16.1,1.7
		c-6.3-1.9-10.6-4.7-12.9-8.4c-2.3-3.7-3.1-8.1-2.5-13.3l0.2-1.7c-5.1-0.2-10,0.2-14.8,1.2c-4.8,1-9.4,3.9-13.6,8.8
		c-4.2,4.9-8.1,12.4-11.6,22.5c-3.5,10.2-6.3,24.2-8.5,42.3l-0.3,2.6c-0.4,3-0.4,6.2,0,9.5c0.4,3.3,1.3,6.4,2.6,9.1
		c1.3,2.8,3.1,5.2,5.4,7.2c2.3,2,5.2,3.2,8.6,3.7l22.3-2.3l0.1-0.4c0.2-1.6,1.2-3.5,2.9-5.7c1.7-2.3,4.1-3.6,7-4.1
		c2.1-0.5,4.3-0.8,6.7-1c2.3-0.2,5.8-0.4,10.5-0.6c-0.7,1.1-1.3,2.4-1.7,3.9c-0.4,1.5-0.7,3-0.8,4.2c-0.5,4.1-0.1,7.5,1.2,9.9
		C669.3,439.9,671.2,441.8,673.8,443.1z"/>
</g>
<path class="st2" d="M522.8,674.9l147.8,14.4c0,0,38.5,6.1,51.2-36.7l58.1-541.9c0,0-2.3-36.1-40.8-39.6L436.2,41.3
	c0,0-42,4.9-46.3,42.6L333,595.3c0,0-3.7,59.5,46.7,61.2L522.8,674.9l1.2-9.9c0,0-16.7-1.2-17.3-16.1c0,0-0.5-19.8,19.9-18.7
	l-1.4-8.9L379.7,608l58-513.1l294.9,33.2l-57.7,509.1l-149.8-16l1.4,8.9c0,0,16.5,1.6,14.9,17.6c0,0,0.5,17.2-18.1,17.1L522.8,674.9
	L522.8,674.9z"/>
</svg>
